<?xml version="1.0" encoding="UTF-8"?>
<svg id="Layer_2" data-name="Layer 2" xmlns="http://www.w3.org/2000/svg" viewBox="0 0 179.94 179.94">
  <defs>
    <style>
      .cls-1 {
        fill: #fff;
      }

      .cls-2 {
        fill: #007eff;
      }
    </style>
  </defs>
  <g id="Layer_1-2" data-name="Layer 1">
    <g>
      <rect class="cls-2" width="179.94" height="179.94" rx="46.6" ry="46.6"/>
      <path class="cls-1" d="M92.25,147.74c-4.02,0-8.45-.11-13.28-.33-4.83-.22-9.56-.52-14.17-.9-4.62-.38-8.83-.79-12.62-1.22v-15.15c3.91.33,8.01.65,12.3.98,4.29.33,8.39.57,12.3.73,3.91.16,7.27.25,10.1.25,5.75,0,10.26-.27,13.52-.82,3.26-.54,5.86-1.41,7.82-2.61,1.3-.87,2.25-1.96,2.85-3.26.59-1.3.98-2.85,1.14-4.64s.24-3.77.24-5.95c0-2.93-.11-5.38-.33-7.33-.22-1.95-.71-3.47-1.47-4.56-.76-1.08-1.95-1.87-3.58-2.36s-3.75-.9-6.35-1.22l-26.72-3.09c-5.21-.65-9.48-1.76-12.79-3.34-3.31-1.57-5.86-3.67-7.66-6.27s-3.01-5.7-3.67-9.29c-.65-3.58-.98-7.55-.98-11.89,0-7.27.98-13.03,2.93-17.27,1.96-4.24,4.75-7.47,8.39-9.69,3.64-2.22,7.95-3.69,12.95-4.4,4.99-.71,10.53-1.06,16.62-1.06,4.24,0,8.58.14,13.03.41,4.45.27,8.66.6,12.62.98,3.96.38,7.25.9,9.86,1.55v14.82c-2.72-.43-5.89-.81-9.53-1.14-3.64-.33-7.41-.57-11.32-.73-3.91-.16-7.55-.24-10.91-.24-5.65,0-10.18.24-13.6.73s-6.06,1.28-7.9,2.36c-2.17,1.2-3.48,2.85-3.91,4.97-.43,2.12-.65,4.75-.65,7.9,0,3.69.24,6.54.73,8.55.49,2.01,1.63,3.4,3.42,4.15,1.79.76,4.53,1.36,8.23,1.79l26.71,3.1c3.37.33,6.41.84,9.12,1.55,2.71.71,5.13,1.87,7.25,3.5,2.12,1.63,3.77,3.97,4.97,7,.76,1.52,1.33,3.26,1.71,5.21.38,1.95.71,4.1.98,6.43.27,2.34.41,4.97.41,7.9,0,6.19-.63,11.35-1.87,15.48-1.25,4.13-2.99,7.41-5.21,9.86-2.23,2.44-4.97,4.29-8.23,5.54-3.26,1.25-6.84,2.06-10.75,2.44-3.91.38-8.14.57-12.71.57Z"/>
    </g>
  </g>
</svg>