<?xml version="1.0" encoding="UTF-8"?>
<svg id="Layer_2" data-name="Layer 2" xmlns="http://www.w3.org/2000/svg" viewBox="0 0 597.11 151.84">
  <defs>
    <style>
      .cls-1 {
        fill: #fff;
      }

      .cls-2 {
        fill: #007eff;
      }
    </style>
  </defs>
  <g id="Layer_1-2" data-name="Layer 1">
    <g>
      <path class="cls-1" d="M33.12,120.16c-3.2,0-6.64-.11-10.32-.32-3.68-.21-7.28-.48-10.8-.8-3.52-.32-6.67-.69-9.44-1.12v-13.44c1.81.11,3.86.27,6.16.48,2.29.21,4.72.38,7.28.48,2.56.11,5.07.21,7.52.32,2.45.11,4.85.16,7.2.16,5.12,0,8.82-.32,11.12-.96,2.29-.64,3.79-1.73,4.48-3.28.69-1.54,1.04-3.54,1.04-6,0-2.77-.24-4.8-.72-6.08-.48-1.28-1.36-2.13-2.64-2.56-1.28-.42-3.25-.8-5.92-1.12l-19.84-2.4c-5.12-.53-8.99-1.73-11.6-3.6-2.62-1.87-4.38-4.42-5.28-7.68-.91-3.25-1.36-7.23-1.36-11.92,0-5.44.77-9.79,2.32-13.04,1.54-3.25,3.73-5.68,6.56-7.28,2.83-1.6,6.27-2.67,10.32-3.2,4.05-.53,8.48-.8,13.28-.8,2.98,0,6.1.11,9.36.32,3.25.21,6.4.51,9.44.88,3.04.38,5.68.78,7.92,1.2v13.44c-2.56-.32-5.33-.58-8.32-.8-2.99-.21-5.95-.4-8.88-.56-2.93-.16-5.73-.24-8.4-.24-3.95,0-7.2.19-9.76.56-2.56.38-4.46,1.23-5.68,2.56-1.23,1.33-1.84,3.6-1.84,6.8,0,2.46.18,4.29.56,5.52.37,1.23,1.17,2.08,2.4,2.56,1.22.48,3.12.88,5.68,1.2l21.44,2.56c4.05.43,7.33,1.25,9.84,2.48,2.5,1.23,4.37,3.42,5.6,6.56,1.23,3.15,1.84,7.92,1.84,14.32,0,5.33-.67,9.63-2,12.88-1.33,3.25-3.33,5.76-6,7.52-2.67,1.76-5.9,2.94-9.68,3.52-3.79.58-8.08.88-12.88.88Z"/>
      <path class="cls-1" d="M116.64,151.84c-3.09,0-6.32-.08-9.68-.24s-6.56-.35-9.6-.56c-3.04-.21-5.74-.48-8.08-.8v-13.28c3.84.1,7.17.21,10,.32,2.82.1,5.36.18,7.6.24,2.24.05,4.21.08,5.92.08,5.76,0,10.29-.38,13.6-1.12,3.3-.75,5.76-2.03,7.36-3.84,1.6-1.81,2.58-4.29,2.96-7.44.37-3.15.56-7.12.56-11.92v-4.96h-.96c-1.07,2.35-2.64,4.35-4.72,6-2.08,1.66-4.8,2.93-8.16,3.84-3.36.9-7.49,1.36-12.4,1.36-5.66,0-10.27-.67-13.84-2-3.58-1.33-6.29-3.31-8.16-5.92-1.87-2.61-3.12-5.89-3.76-9.84-.64-3.94-.96-8.53-.96-13.76v-50.72h16.96v44c0,5.33.18,9.58.56,12.72.37,3.15,1.15,5.47,2.32,6.96,1.17,1.5,2.9,2.48,5.2,2.96,2.29.48,5.36.72,9.2.72,4.27,0,7.68-.53,10.24-1.6,2.56-1.06,4.45-2.67,5.68-4.8,1.23-2.13,2-4.8,2.32-8s.48-6.93.48-11.2v-41.76h17.12v72c0,7.58-.4,14.05-1.2,19.44-.8,5.38-2.46,9.79-4.96,13.2-2.51,3.41-6.27,5.92-11.28,7.52-5.01,1.6-11.79,2.4-20.32,2.4Z"/>
      <path class="cls-1" d="M179.68,118.88V37.28h15.68l.48,10.88h1.28c1.28-2.66,2.98-4.88,5.12-6.64,2.13-1.76,4.91-3.12,8.32-4.08,3.41-.96,7.57-1.44,12.48-1.44,5.76,0,10.4.67,13.92,2,3.52,1.33,6.19,3.33,8,6,1.81,2.67,3.06,5.98,3.76,9.92.69,3.95,1.04,8.59,1.04,13.92v51.04h-17.12v-44.32c0-5.33-.19-9.57-.56-12.72-.38-3.15-1.15-5.49-2.32-7.04-1.17-1.54-2.91-2.53-5.2-2.96-2.29-.42-5.36-.64-9.2-.64-4.27,0-7.66.54-10.16,1.6-2.51,1.07-4.38,2.67-5.6,4.8-1.23,2.13-2.03,4.8-2.4,8-.38,3.2-.56,6.93-.56,11.2v42.08h-16.96Z"/>
      <path class="cls-1" d="M282.4,118.88V51.52h-16.32v-14.24h16.32V13.6h16.96v23.68h19.04v14.24h-19.04v67.36h-16.96Z"/>
      <path class="cls-1" d="M334.87,118.88V0h16.96v47.36h1.12c1.28-2.45,2.99-4.5,5.12-6.16,2.13-1.65,4.83-2.9,8.08-3.76,3.25-.85,7.22-1.28,11.92-1.28,5.76,0,10.42.64,14,1.92,3.57,1.28,6.27,3.25,8.08,5.92,1.81,2.67,3.07,5.98,3.76,9.92.69,3.95,1.04,8.59,1.04,13.92v51.04h-17.12v-44.32c0-5.33-.19-9.57-.56-12.72-.38-3.15-1.15-5.49-2.32-7.04-1.17-1.54-2.91-2.53-5.2-2.96-2.29-.42-5.36-.64-9.2-.64-4.27,0-7.66.54-10.16,1.6-2.51,1.07-4.38,2.67-5.6,4.8-1.23,2.13-2.03,4.8-2.4,8-.38,3.2-.56,6.93-.56,11.2v42.08h-16.96Z"/>
      <path class="cls-2" d="M456.95,120.16c-5.66,0-10.27-.67-13.84-2-3.57-1.33-6.29-3.33-8.16-6-1.87-2.67-3.12-5.97-3.76-9.92-.64-3.95-.96-8.58-.96-13.92v-51.04h16.96v44.32c0,5.33.19,9.57.56,12.72.37,3.15,1.14,5.5,2.32,7.04,1.17,1.55,2.9,2.54,5.2,2.96,2.29.43,5.36.64,9.2.64,4.26,0,7.68-.53,10.24-1.6,2.56-1.07,4.45-2.67,5.68-4.8,1.23-2.13,2-4.8,2.32-8,.32-3.2.48-6.93.48-11.2v-42.08h17.12v81.6h-15.68l-.64-10.88h-1.12c-1.17,2.56-2.86,4.75-5.04,6.56-2.19,1.81-4.99,3.2-8.4,4.16-3.42.96-7.58,1.44-12.48,1.44Z"/>
      <path class="cls-2" d="M516.95,118.88l29.6-41.44-28.64-40.16h19.2l19.68,27.68h.96l19.84-27.68h18.24l-28.48,40,29.76,41.6h-19.2l-20.96-28.96h-.96l-20.8,28.96h-18.24Z"/>
    </g>
  </g>
</svg>